<?xml version="1.0" encoding="UTF-8"?>
<!DOCTYPE svg PUBLIC "-//W3C//DTD SVG 1.1//EN" "http://www.w3.org/Graphics/SVG/1.1/DTD/svg11.dtd">
<svg version="1.1" xmlns="http://www.w3.org/2000/svg" xmlns:xlink="http://www.w3.org/1999/xlink" x="0" y="0" width="673" height="186" viewBox="0, 0, 673, 186">
  <defs>
    <clipPath id="Clip_1">
      <path d="M-0,0.618 L672.359,0.618 L672.359,185.94 L-0,185.94 z"/>
    </clipPath>
  </defs>
  <g id="Layer_1">
    <path d="M349.168,52.198 L349.168,48.314 C349.168,44.064 345.691,40.586 341.44,40.586 L260.238,40.586 C255.988,40.586 252.51,44.064 252.51,48.314 L252.51,52.198 C250.711,53.301 249.5,55.281 249.5,57.535 L249.5,67.925 C249.5,70.179 250.711,72.159 252.51,73.263 L252.51,77.294 C252.51,81.544 255.988,85.022 260.238,85.022 L341.44,85.022 C345.691,85.022 349.168,81.544 349.168,77.294 L349.168,73.263 C350.968,72.159 352.178,70.179 352.178,67.925 L352.178,57.535 C352.178,55.281 350.968,53.301 349.168,52.198" fill="#0A0B09"/>
    <path d="M300.839,0.618 C278.954,0.618 260.9,16.97 258.196,38.12 L343.482,38.12 C340.778,16.97 322.724,0.618 300.839,0.618" fill="#0A0B09"/>
    <path d="M288.146,96.347 L313.533,96.347 L316.125,99.348 L320.024,95.981 L315.891,91.195 L285.787,91.195 L281.654,95.981 L285.553,99.348 L288.146,96.347" fill="#0A0B09"/>
    <path d="M331.543,103.912 C331.543,108.431 327.846,112.127 323.328,112.127 L318.857,112.127 L318.857,112.111 C317.878,112.111 317.014,111.653 316.438,110.95 L316.427,110.95 L311.081,104.121 L311.075,104.126 C310.504,103.386 309.62,102.9 308.615,102.893 C308.608,102.893 308.602,102.891 308.595,102.891 C308.589,102.891 308.583,102.893 308.576,102.893 L293.098,102.893 C293.092,102.893 293.085,102.891 293.079,102.891 C293.072,102.891 293.066,102.893 293.059,102.893 C292.128,102.899 291.303,103.318 290.731,103.966 L290.72,103.961 L285.249,110.95 L285.241,110.95 C284.665,111.653 283.801,112.111 282.822,112.111 L282.822,112.127 L278.347,112.127 C273.829,112.127 270.132,108.431 270.132,103.912 L270.132,87.474 L260.092,87.474 L260.092,103.959 C260.092,113.999 268.307,122.214 278.347,122.214 L323.331,122.214 C333.372,122.214 341.586,113.999 341.586,103.959 L341.586,87.474 L331.543,87.474 L331.543,103.912" fill="#0A0B09"/>
    <path d="M333.964,68.493 L267.714,68.493 C264.585,68.493 262.025,65.933 262.025,62.804 C262.025,59.675 264.585,57.115 267.714,57.115 L333.964,57.115 C337.093,57.115 339.653,59.675 339.653,62.804 C339.653,65.933 337.093,68.493 333.964,68.493" fill="#D7262C"/>
    <path d="M525.95,57.866 L525.95,56.371 C525.95,54.734 524.611,53.395 522.974,53.395 L491.704,53.395 C490.067,53.395 488.728,54.734 488.728,56.371 L488.728,57.866 C488.035,58.291 487.569,59.054 487.569,59.921 L487.569,63.923 C487.569,64.791 488.035,65.553 488.728,65.978 L488.728,67.53 C488.728,69.167 490.067,70.506 491.704,70.506 L522.974,70.506 C524.611,70.506 525.95,69.167 525.95,67.53 L525.95,65.978 C526.643,65.553 527.109,64.791 527.109,63.923 L527.109,59.921 C527.109,59.054 526.643,58.291 525.95,57.866" fill="#0A0B09"/>
    <path d="M507.339,38.003 C498.911,38.003 491.959,44.3 490.918,52.445 L523.761,52.445 C522.719,44.3 515.767,38.003 507.339,38.003" fill="#0A0B09"/>
    <path d="M502.451,74.867 L512.227,74.867 L513.226,76.023 L514.727,74.727 L513.136,72.883 L501.543,72.883 L499.951,74.727 L501.453,76.023 L502.451,74.867" fill="#0A0B09"/>
    <path d="M520.365,64.141 L494.314,64.141 C493.257,64.141 492.392,63.277 492.392,62.22 L492.392,61.681 C492.392,60.624 493.257,59.76 494.314,59.76 L520.365,59.76 C521.421,59.76 522.286,60.624 522.286,61.681 L522.286,62.22 C522.286,63.277 521.421,64.141 520.365,64.141" fill="#D7262C"/>
    <path d="M519.163,71.451 L519.163,77.781 C519.163,79.521 517.739,80.944 516,80.944 L514.278,80.944 L514.278,80.938 C513.901,80.938 513.568,80.762 513.346,80.491 L513.342,80.491 L511.283,77.861 L511.281,77.863 C511.061,77.578 510.721,77.391 510.334,77.388 C510.331,77.388 510.329,77.388 510.326,77.388 C510.323,77.388 510.321,77.388 510.319,77.388 L504.358,77.388 C504.356,77.388 504.353,77.388 504.351,77.388 C504.348,77.388 504.346,77.388 504.343,77.388 C503.985,77.391 503.667,77.552 503.447,77.801 L503.442,77.799 L501.335,80.491 L501.332,80.491 C501.111,80.762 500.778,80.938 500.401,80.938 L500.401,80.944 L498.678,80.944 C496.938,80.944 495.514,79.521 495.514,77.781 L495.514,71.451 L491.648,71.451 L491.648,77.799 C491.648,81.665 494.811,84.829 498.678,84.829 L516.001,84.829 C519.867,84.829 523.03,81.665 523.03,77.799 L523.03,71.451 L519.163,71.451" fill="#0A0B09"/>
    <path d="M233.044,152.3 C233.044,152.012 232.948,151.821 232.756,151.628 L231.7,150.573 C231.508,150.38 231.316,150.285 231.028,150.285 L220.226,150.285 L220.226,158.733 L231.028,158.733 C231.316,158.733 231.508,158.637 231.7,158.445 L232.756,157.389 C232.948,157.197 233.044,157.004 233.044,156.717 L233.044,152.3 z M234.004,176.831 L224.547,164.637 C224.355,164.349 224.067,164.206 223.731,164.206 L220.226,164.206 L220.226,176.831 L214.466,176.831 L214.466,144.812 L232.324,144.812 C233.236,144.812 234.004,145.148 234.628,145.772 L237.796,148.94 C238.468,149.612 238.804,150.38 238.804,151.34 L238.804,157.677 C238.804,158.637 238.468,159.405 237.796,160.077 L234.628,163.246 C234.004,163.87 233.236,164.206 232.324,164.206 L231.172,164.206 L241.06,176.831 L234.004,176.831" fill="#0A0B09"/>
    <path d="M258.771,176.831 L258.003,173.566 L255.699,175.871 C255.026,176.542 254.258,176.831 253.346,176.831 L248.498,176.831 C247.586,176.831 246.818,176.542 246.146,175.871 L244.034,173.758 C243.361,173.086 243.025,172.27 243.025,171.31 L243.025,153.981 L248.498,153.981 L248.498,171.022 C248.498,171.31 248.594,171.502 248.786,171.694 L249.17,172.079 C249.362,172.27 249.602,172.366 249.842,172.366 L252.818,172.366 C253.059,172.366 253.298,172.27 253.49,172.079 L257.235,168.334 C257.427,168.142 257.523,167.95 257.523,167.662 L257.523,153.981 L262.995,153.981 L262.995,172.846 L263.955,176.831 L258.771,176.831" fill="#0A0B09"/>
    <path d="M283.726,159.79 C283.726,159.501 283.63,159.309 283.438,159.117 L283.39,159.069 C283.198,158.877 282.958,158.781 282.718,158.781 L277.87,158.781 C277.63,158.781 277.39,158.877 277.198,159.069 L273.789,162.477 C273.598,162.669 273.501,162.862 273.501,163.149 L273.501,167.662 C273.501,167.95 273.598,168.142 273.789,168.334 L277.198,171.742 C277.39,171.934 277.63,172.03 277.87,172.03 L282.718,172.03 C282.958,172.03 283.198,171.934 283.39,171.742 L283.438,171.694 C283.63,171.502 283.726,171.31 283.726,171.022 L283.726,159.79 z M288.19,173.758 L286.079,175.871 C285.406,176.542 284.638,176.831 283.726,176.831 L277.678,176.831 C276.766,176.831 275.997,176.542 275.326,175.871 L273.021,173.566 L272.253,176.831 L267.261,176.831 L268.029,173.039 L268.029,144.812 L273.501,144.812 L273.501,156.765 L275.326,154.941 C275.997,154.269 276.766,153.981 277.678,153.981 L283.726,153.981 C284.638,153.981 285.406,154.269 286.079,154.941 L288.19,157.053 C288.863,157.725 289.199,158.541 289.199,159.501 L289.199,171.31 C289.199,172.27 288.863,173.086 288.19,173.758" fill="#0A0B09"/>
    <path d="M307.75,159.79 C307.75,159.501 307.654,159.309 307.462,159.117 L307.414,159.069 C307.222,158.877 306.982,158.781 306.742,158.781 L298.533,158.781 C298.293,158.781 298.053,158.877 297.861,159.069 L297.813,159.117 C297.621,159.309 297.525,159.501 297.525,159.79 L297.525,171.022 C297.525,171.31 297.621,171.502 297.813,171.694 L297.861,171.742 C298.053,171.934 298.293,172.03 298.533,172.03 L306.742,172.03 C306.982,172.03 307.222,171.934 307.414,171.742 L307.462,171.694 C307.654,171.502 307.75,171.31 307.75,171.022 L307.75,159.79 z M312.214,173.758 L310.102,175.871 C309.43,176.542 308.662,176.831 307.75,176.831 L297.525,176.831 C296.613,176.831 295.845,176.542 295.173,175.871 L293.06,173.758 C292.389,173.086 292.053,172.27 292.053,171.31 L292.053,159.501 C292.053,158.541 292.389,157.725 293.06,157.053 L295.173,154.941 C295.845,154.269 296.613,153.981 297.525,153.981 L307.75,153.981 C308.662,153.981 309.43,154.269 310.102,154.941 L312.214,157.053 C312.886,157.725 313.222,158.541 313.222,159.501 L313.222,171.214 C313.222,172.174 312.886,173.086 312.214,173.758" fill="#0A0B09"/>
    <path d="M337.496,175.823 C336.824,176.495 336.008,176.831 335.096,176.831 L324.679,176.831 C323.767,176.831 322.951,176.495 322.279,175.823 L318.342,171.886 C317.67,171.214 317.334,170.398 317.334,169.486 L317.334,152.157 C317.334,151.245 317.67,150.428 318.342,149.756 L322.279,145.82 C322.951,145.148 323.767,144.812 324.679,144.812 L335.096,144.812 C336.008,144.812 336.824,145.148 337.496,145.82 L341.672,149.997 L337.784,153.836 L334.52,150.573 C334.328,150.38 334.136,150.285 333.848,150.285 L325.927,150.285 C325.639,150.285 325.447,150.38 325.255,150.573 L323.383,152.445 C323.191,152.636 323.095,152.876 323.095,153.117 L323.095,168.526 C323.095,168.766 323.191,169.006 323.383,169.198 L325.255,171.07 C325.447,171.262 325.639,171.358 325.927,171.358 L333.848,171.358 C334.136,171.358 334.328,171.262 334.52,171.07 L337.784,167.806 L341.672,171.646 L337.496,175.823" fill="#0A0B09"/>
    <g clip-path="url(#Clip_1)">
      <path d="M360.555,159.79 C360.555,159.501 360.458,159.309 360.267,159.117 L360.219,159.069 C360.027,158.877 359.787,158.781 359.546,158.781 L351.338,158.781 C351.098,158.781 350.858,158.877 350.665,159.069 L350.618,159.117 C350.426,159.309 350.329,159.501 350.329,159.79 L350.329,171.022 C350.329,171.31 350.426,171.502 350.618,171.694 L350.665,171.742 C350.858,171.934 351.098,172.03 351.338,172.03 L359.546,172.03 C359.787,172.03 360.027,171.934 360.219,171.742 L360.267,171.694 C360.458,171.502 360.555,171.31 360.555,171.022 L360.555,159.79 z M365.019,173.758 L362.907,175.871 C362.235,176.542 361.467,176.831 360.555,176.831 L350.329,176.831 C349.417,176.831 348.65,176.542 347.978,175.871 L345.866,173.758 C345.194,173.086 344.858,172.27 344.858,171.31 L344.858,159.501 C344.858,158.541 345.194,157.725 345.866,157.053 L347.978,154.941 C348.65,154.269 349.417,153.981 350.329,153.981 L360.555,153.981 C361.467,153.981 362.235,154.269 362.907,154.941 L365.019,157.053 C365.691,157.725 366.027,158.541 366.027,159.501 L366.027,171.214 C366.027,172.174 365.691,173.086 365.019,173.758" fill="#0A0B09"/>
      <path d="M385.221,159.79 C385.221,159.501 385.125,159.309 384.934,159.117 L384.885,159.069 C384.694,158.877 384.454,158.781 384.213,158.781 L379.365,158.781 C379.125,158.781 378.885,158.877 378.693,159.069 L375.285,162.477 C375.093,162.669 374.996,162.862 374.996,163.149 L374.996,167.662 C374.996,167.95 375.093,168.142 375.285,168.334 L378.693,171.742 C378.885,171.934 379.125,172.03 379.365,172.03 L384.213,172.03 C384.454,172.03 384.694,171.934 384.885,171.742 L384.934,171.694 C385.125,171.502 385.221,171.31 385.221,171.022 L385.221,159.79 z M389.686,173.758 L387.574,175.871 C386.902,176.542 386.133,176.831 385.221,176.831 L379.173,176.831 C378.261,176.831 377.493,176.542 376.821,175.871 L374.996,174.046 L374.996,186 L369.524,186 L369.524,157.773 L368.756,153.981 L373.748,153.981 L374.517,157.245 L376.821,154.941 C377.493,154.269 378.261,153.981 379.173,153.981 L385.221,153.981 C386.133,153.981 386.902,154.269 387.574,154.941 L389.686,157.053 C390.358,157.725 390.694,158.541 390.694,159.501 L390.694,171.31 C390.694,172.27 390.358,173.086 389.686,173.758" fill="#0A0B09"/>
    </g>
    <path d="M559.844,55.913 C559.844,55.708 559.777,55.573 559.64,55.436 L558.892,54.689 C558.756,54.552 558.621,54.485 558.416,54.485 L550.767,54.485 L550.767,60.468 L558.416,60.468 C558.621,60.468 558.756,60.4 558.892,60.264 L559.64,59.516 C559.777,59.38 559.844,59.244 559.844,59.04 L559.844,55.913 z M560.524,73.285 L553.827,64.65 C553.691,64.446 553.487,64.343 553.249,64.343 L550.767,64.343 L550.767,73.285 L546.688,73.285 L546.688,50.609 L559.334,50.609 C559.98,50.609 560.524,50.847 560.966,51.289 L563.21,53.533 C563.686,54.008 563.924,54.552 563.924,55.233 L563.924,59.72 C563.924,60.4 563.686,60.944 563.21,61.419 L560.966,63.664 C560.524,64.106 559.98,64.343 559.334,64.343 L558.519,64.343 L565.522,73.285 L560.524,73.285" fill="#0A0B09"/>
    <path d="M578.068,73.285 L577.524,70.973 L575.892,72.605 C575.416,73.081 574.872,73.285 574.226,73.285 L570.792,73.285 C570.147,73.285 569.603,73.081 569.126,72.605 L567.631,71.109 C567.155,70.633 566.917,70.055 566.917,69.375 L566.917,57.102 L570.792,57.102 L570.792,69.171 C570.792,69.375 570.861,69.511 570.997,69.647 L571.269,69.919 C571.405,70.055 571.575,70.123 571.745,70.123 L573.852,70.123 C574.022,70.123 574.192,70.055 574.329,69.919 L576.98,67.267 C577.116,67.131 577.184,66.996 577.184,66.791 L577.184,57.102 L581.06,57.102 L581.06,70.463 L581.74,73.285 L578.068,73.285" fill="#0A0B09"/>
    <path d="M595.912,61.216 C595.912,61.012 595.843,60.875 595.707,60.74 L595.673,60.706 C595.538,60.57 595.368,60.501 595.198,60.501 L591.764,60.501 C591.594,60.501 591.423,60.57 591.288,60.706 L588.874,63.12 C588.738,63.255 588.67,63.392 588.67,63.595 L588.67,66.791 C588.67,66.996 588.738,67.131 588.874,67.267 L591.288,69.681 C591.423,69.817 591.594,69.885 591.764,69.885 L595.198,69.885 C595.368,69.885 595.538,69.817 595.673,69.681 L595.707,69.647 C595.843,69.511 595.912,69.375 595.912,69.171 L595.912,61.216 z M599.073,71.109 L597.578,72.605 C597.101,73.081 596.557,73.285 595.912,73.285 L591.627,73.285 C590.982,73.285 590.438,73.081 589.962,72.605 L588.331,70.973 L587.787,73.285 L584.25,73.285 L584.794,70.599 L584.794,50.609 L588.67,50.609 L588.67,59.074 L589.962,57.783 C590.438,57.306 590.982,57.102 591.627,57.102 L595.912,57.102 C596.557,57.102 597.101,57.306 597.578,57.783 L599.073,59.278 C599.549,59.754 599.787,60.332 599.787,61.012 L599.787,69.375 C599.787,70.055 599.549,70.633 599.073,71.109" fill="#0A0B09"/>
    <path d="M613.087,61.216 C613.087,61.012 613.02,60.875 612.884,60.74 L612.85,60.706 C612.714,60.57 612.543,60.501 612.373,60.501 L606.56,60.501 C606.39,60.501 606.22,60.57 606.084,60.706 L606.05,60.74 C605.914,60.875 605.846,61.012 605.846,61.216 L605.846,69.171 C605.846,69.375 605.914,69.511 606.05,69.647 L606.084,69.681 C606.22,69.817 606.39,69.885 606.56,69.885 L612.373,69.885 C612.543,69.885 612.714,69.817 612.85,69.681 L612.884,69.647 C613.02,69.511 613.087,69.375 613.087,69.171 L613.087,61.216 z M616.249,71.109 L614.753,72.605 C614.278,73.081 613.734,73.285 613.087,73.285 L605.846,73.285 C605.201,73.285 604.657,73.081 604.181,72.605 L602.685,71.109 C602.208,70.633 601.971,70.055 601.971,69.375 L601.971,61.012 C601.971,60.332 602.208,59.754 602.685,59.278 L604.181,57.783 C604.657,57.306 605.201,57.102 605.846,57.102 L613.087,57.102 C613.734,57.102 614.278,57.306 614.753,57.783 L616.249,59.278 C616.725,59.754 616.963,60.332 616.963,61.012 L616.963,69.307 C616.963,69.987 616.725,70.633 616.249,71.109" fill="#0A0B09"/>
    <path d="M634.34,72.571 C633.865,73.046 633.287,73.285 632.641,73.285 L625.263,73.285 C624.618,73.285 624.039,73.046 623.564,72.571 L620.776,69.783 C620.3,69.307 620.062,68.729 620.062,68.083 L620.062,55.81 C620.062,55.165 620.3,54.586 620.776,54.111 L623.564,51.323 C624.039,50.847 624.618,50.609 625.263,50.609 L632.641,50.609 C633.287,50.609 633.865,50.847 634.34,51.323 L637.298,54.281 L634.544,57 L632.233,54.689 C632.097,54.552 631.96,54.485 631.757,54.485 L626.147,54.485 C625.944,54.485 625.807,54.552 625.671,54.689 L624.345,56.014 C624.209,56.15 624.142,56.321 624.142,56.491 L624.142,67.403 C624.142,67.574 624.209,67.744 624.345,67.879 L625.671,69.205 C625.807,69.341 625.944,69.409 626.147,69.409 L631.757,69.409 C631.96,69.409 632.097,69.341 632.233,69.205 L634.544,66.893 L637.298,69.613 L634.34,72.571" fill="#0A0B09"/>
    <path d="M650.841,61.216 C650.841,61.012 650.773,60.875 650.637,60.74 L650.603,60.706 C650.467,60.57 650.297,60.501 650.127,60.501 L644.314,60.501 C644.144,60.501 643.974,60.57 643.838,60.706 L643.804,60.74 C643.668,60.875 643.6,61.012 643.6,61.216 L643.6,69.171 C643.6,69.375 643.668,69.511 643.804,69.647 L643.838,69.681 C643.974,69.817 644.144,69.885 644.314,69.885 L650.127,69.885 C650.297,69.885 650.467,69.817 650.603,69.681 L650.637,69.647 C650.773,69.511 650.841,69.375 650.841,69.171 L650.841,61.216 z M654.003,71.109 L652.507,72.605 C652.031,73.081 651.487,73.285 650.841,73.285 L643.6,73.285 C642.954,73.285 642.41,73.081 641.934,72.605 L640.438,71.109 C639.962,70.633 639.724,70.055 639.724,69.375 L639.724,61.012 C639.724,60.332 639.962,59.754 640.438,59.278 L641.934,57.783 C642.41,57.306 642.954,57.102 643.6,57.102 L650.841,57.102 C651.487,57.102 652.031,57.306 652.507,57.783 L654.003,59.278 C654.479,59.754 654.717,60.332 654.717,61.012 L654.717,69.307 C654.717,69.987 654.479,70.633 654.003,71.109" fill="#0A0B09"/>
    <path d="M668.484,61.216 C668.484,61.012 668.415,60.875 668.28,60.74 L668.246,60.706 C668.11,60.57 667.94,60.501 667.77,60.501 L664.336,60.501 C664.166,60.501 663.996,60.57 663.86,60.706 L661.447,63.12 C661.31,63.255 661.243,63.392 661.243,63.595 L661.243,66.791 C661.243,66.996 661.31,67.131 661.447,67.267 L663.86,69.681 C663.996,69.817 664.166,69.885 664.336,69.885 L667.77,69.885 C667.94,69.885 668.11,69.817 668.246,69.681 L668.28,69.647 C668.415,69.511 668.484,69.375 668.484,69.171 L668.484,61.216 z M671.645,71.109 L670.15,72.605 C669.673,73.081 669.129,73.285 668.484,73.285 L664.2,73.285 C663.554,73.285 663.01,73.081 662.535,72.605 L661.243,71.313 L661.243,79.778 L657.367,79.778 L657.367,59.788 L656.823,57.102 L660.359,57.102 L660.903,59.414 L662.535,57.783 C663.01,57.306 663.554,57.102 664.2,57.102 L668.484,57.102 C669.129,57.102 669.673,57.306 670.15,57.783 L671.645,59.278 C672.122,59.754 672.359,60.332 672.359,61.012 L672.359,69.375 C672.359,70.055 672.122,70.633 671.645,71.109" fill="#0A0B09"/>
    <path d="M99.668,52.198 L99.668,48.314 C99.668,44.064 96.191,40.586 91.94,40.586 L10.738,40.586 C6.488,40.586 3.01,44.064 3.01,48.314 L3.01,52.198 C1.211,53.302 -0,55.281 -0,57.535 L-0,67.925 C-0,70.179 1.211,72.159 3.01,73.263 L3.01,77.294 C3.01,81.544 6.488,85.022 10.738,85.022 L91.94,85.022 C96.191,85.022 99.668,81.544 99.668,77.294 L99.668,73.263 C101.468,72.159 102.678,70.179 102.678,67.925 L102.678,57.535 C102.678,55.281 101.468,53.301 99.668,52.198" fill="#0A0B09"/>
    <path d="M51.339,0.618 C29.454,0.618 11.4,16.97 8.696,38.12 L93.982,38.12 C91.278,16.97 73.224,0.618 51.339,0.618" fill="#0A0B09"/>
    <path d="M38.646,96.347 L64.033,96.347 L66.625,99.348 L70.524,95.981 L66.391,91.195 L36.287,91.195 L32.154,95.981 L36.053,99.348 L38.646,96.347" fill="#0A0B09"/>
    <path d="M84.465,68.493 L18.214,68.493 C15.085,68.493 12.525,65.933 12.525,62.804 C12.525,59.675 15.085,57.115 18.214,57.115 L84.465,57.115 C87.593,57.115 90.153,59.675 90.153,62.804 C90.153,65.933 87.593,68.493 84.465,68.493" fill="#D7262C"/>
    <path d="M82.043,87.474 L82.043,103.912 C82.043,108.43 78.346,112.127 73.828,112.127 L69.357,112.127 L69.357,112.111 C68.378,112.111 67.514,111.653 66.938,110.95 L66.927,110.95 L61.581,104.121 L61.575,104.126 C61.004,103.386 60.12,102.9 59.115,102.893 C59.108,102.893 59.102,102.891 59.095,102.891 C59.089,102.891 59.083,102.893 59.076,102.893 L43.598,102.893 C43.591,102.893 43.585,102.891 43.579,102.891 C43.572,102.891 43.566,102.893 43.559,102.893 C42.628,102.899 41.803,103.318 41.231,103.966 L41.22,103.961 L35.749,110.95 L35.741,110.95 C35.165,111.653 34.301,112.111 33.322,112.111 L33.322,112.127 L28.847,112.127 C24.329,112.127 20.632,108.43 20.632,103.912 L20.632,87.474 L10.592,87.474 L10.592,103.959 C10.592,113.999 18.807,122.214 28.847,122.214 L73.831,122.214 C83.872,122.214 92.086,113.999 92.086,103.959 L92.086,87.474 L82.043,87.474" fill="#0A0B09"/>
    <path d="M312.718,150.801 L292.556,179.747" fill-opacity="0" stroke="#D83B2D" stroke-width="6"/>
    <path d="M293.695,153.801 L312.246,180.011" fill-opacity="0" stroke="#D83B2D" stroke-width="6"/>
    <path d="M619.949,48.199 L599.787,77.145" fill-opacity="0" stroke="#D83B2D" stroke-width="6"/>
    <path d="M600.926,51.199 L619.477,77.409" fill-opacity="0" stroke="#D83B2D" stroke-width="6"/>
    <text transform="matrix(1, 0, 0, 1, 314.063, 136.08)">
      <tspan x="-24.864" y="11.268" font-family="HanziPenSC-W5" font-size="32" fill="#D83B2D">by</tspan>
    </text>
    <text transform="matrix(1, 0, 0, 1, 624.651, 37.028)">
      <tspan x="-24.864" y="2.268" font-family="HanziPenSC-W5" font-size="24" fill="#D83B2D">by</tspan>
    </text>
  </g>
</svg>
